<?xml version="1.0" encoding="UTF-8"?>
<svg width="232px" height="232px" viewBox="0 0 232 232" version="1.1" xmlns="http://www.w3.org/2000/svg" xmlns:xlink="http://www.w3.org/1999/xlink">
    <!-- Generator: Sketch 52.1 (67048) - http://www.bohemiancoding.com/sketch -->
    <title>Slice</title>
    <desc>Created with Sketch.</desc>
    <defs>
        <linearGradient x1="-4.41709702%" y1="49.9805165%" x2="104.400615%" y2="49.9805165%" id="linearGradient-1">
            <stop stop-color="#7C76DC" offset="0%"></stop>
            <stop stop-color="#91B2F9" offset="100%"></stop>
        </linearGradient>
    </defs>
    <g id="Design" stroke="none" stroke-width="1" fill="none" fill-rule="evenodd">
        <path d="M103.64,130.870055 L102.11,132.540055 C98.4326261,136.643701 94.5299365,140.539714 90.42,144.210055 L91.42,143.210055 C84.0462782,149.951772 74.4111002,153.680943 64.42,153.660055 C42.65,153.660055 25,136.500055 25,115.330055 C25,94.1600553 42.65,77.0000553 64.42,77.0000553 C71.2258131,76.9887543 77.9225817,78.709404 83.88,82.0000553 L83.23,81.6200553 C95.3084273,90.115178 105.735787,100.742478 114,112.980055 C129.29,134.750055 142.44,145.070055 142.44,145.070055 L140.6,143.620055 C147.973722,150.361772 157.6089,154.090943 167.6,154.070055 C189.37,154.070055 207.02,136.910055 207.02,115.740055 C207.02,94.5700553 189.37,77.4100553 167.6,77.4100553 C160.794187,77.3987543 154.097418,79.119404 148.14,82.4100553 L149.59,81.6500553 C142.27,86.1800553 134.29,94.1900553 128.18,101.010055" id="Path" stroke="url(#linearGradient-1)" stroke-width="16"></path>
    </g>
</svg>